<svg width="398" height="199" viewBox="0 0 398 199" fill="none" xmlns="http://www.w3.org/2000/svg">
<path d="M363.089 109.875L362.901 109.251V109.251L363.089 109.875ZM163.099 86.2733C162.751 86.3649 162.544 86.721 162.635 87.0687L164.127 92.7351C164.219 93.0828 164.575 93.2905 164.923 93.1989C165.27 93.1074 165.478 92.7513 165.386 92.4036L164.06 87.3668L169.097 86.0407C169.445 85.9491 169.653 85.593 169.561 85.2453C169.469 84.8976 169.113 84.6899 168.766 84.7815L163.099 86.2733ZM245.899 39.7611L246.395 40.1824C269.461 13.0027 294.056 2.08307 316.488 1.34271C338.935 0.601828 359.306 10.0512 373.912 23.7769C388.528 37.5136 397.298 55.4611 396.666 71.6453C396.35 79.7258 393.693 87.3729 388.243 93.87C382.791 100.37 374.513 105.755 362.901 109.251L363.089 109.875L363.277 110.498C375.078 106.945 383.593 101.44 389.241 94.7068C394.891 87.9703 397.641 80.0401 397.967 71.6962C398.618 55.0316 389.609 36.7423 374.803 22.8281C359.986 8.90291 339.29 -0.712691 316.445 0.0413054C293.585 0.795822 268.662 11.9309 245.403 39.3398L245.899 39.7611ZM363.089 109.875L362.901 109.251C310.149 125.134 260.322 119.411 223.666 109.706C205.34 104.854 190.315 99.0082 179.872 94.377C174.652 92.0615 170.578 90.05 167.811 88.6184C166.427 87.9026 165.371 87.3319 164.661 86.9407C164.306 86.7452 164.038 86.5945 163.859 86.493C163.77 86.4423 163.703 86.4038 163.658 86.3782C163.636 86.3654 163.619 86.3559 163.608 86.3495C163.603 86.3464 163.599 86.3441 163.596 86.3426C163.595 86.3418 163.594 86.3413 163.594 86.3409C163.593 86.3406 163.593 86.3405 163.265 86.9029C162.937 87.4653 162.938 87.4657 162.938 87.4662C162.939 87.4667 162.941 87.4674 162.942 87.4683C162.945 87.4701 162.95 87.4728 162.956 87.4763C162.968 87.4832 162.985 87.4934 163.009 87.5069C163.056 87.5338 163.125 87.5735 163.217 87.6255C163.4 87.7296 163.673 87.8829 164.032 88.0811C164.752 88.4775 165.818 89.0537 167.212 89.7749C170 91.2173 174.098 93.2404 179.345 95.5673C189.837 100.221 204.929 106.092 223.333 110.965C260.138 120.709 310.223 126.472 363.277 110.498L363.089 109.875Z" fill="white" fill-opacity="0.4"/>
<line y1="197.868" x2="357.58" y2="197.868" stroke="white" stroke-opacity="0.4" stroke-width="1.3"/>
</svg>
