<svg width="111" height="111" viewBox="0 0 111 111" fill="none" xmlns="http://www.w3.org/2000/svg">
<path d="M111 55.5C111 86.1518 86.1518 111 55.5 111C24.8482 111 0 86.1518 0 55.5C0 24.8482 24.8482 0 55.5 0C86.1518 0 111 24.8482 111 55.5ZM12.21 55.5C12.21 79.4084 31.5916 98.79 55.5 98.79C79.4084 98.79 98.79 79.4084 98.79 55.5C98.79 31.5916 79.4084 12.21 55.5 12.21C31.5916 12.21 12.21 31.5916 12.21 55.5Z" fill="white" fill-opacity="0.1"/>
<path d="M55.5 6.105C55.5 2.7333 52.7585 -0.0347303 49.4072 0.335407C40.5856 1.30971 32.0946 4.3897 24.6659 9.35344C15.5389 15.4519 8.42535 24.1198 4.22469 34.2611C0.0240224 44.4024 -1.07506 55.5616 1.06642 66.3275C3.2079 77.0935 8.49376 86.9826 16.2556 94.7444C24.0174 102.506 33.9065 107.792 44.6725 109.934C55.4384 112.075 66.5976 110.976 76.7389 106.775C86.8802 102.575 95.5481 95.4611 101.647 86.3341C106.61 78.9054 109.69 70.4144 110.665 61.5928C111.035 58.2415 108.267 55.5 104.895 55.5C101.523 55.5 98.8342 58.2467 98.3602 61.5849C97.4513 67.987 95.1155 74.1312 91.4943 79.5506C86.7375 86.6696 79.9766 92.2182 72.0664 95.4947C64.1562 98.7713 55.452 99.6285 47.0545 97.9582C38.6571 96.2878 30.9436 92.1649 24.8893 86.1106C18.8351 80.0564 14.7122 72.3429 13.0418 63.9455C11.3715 55.548 12.2287 46.8438 15.5053 38.9336C18.7818 31.0234 24.3304 24.2624 31.4494 19.5057C36.8688 15.8845 43.013 13.5487 49.4151 12.6398C52.7533 12.1658 55.5 9.4767 55.5 6.105Z" fill="#DBAC51"/>
</svg>
