<svg width="214" height="263" viewBox="0 0 214 263" fill="none" xmlns="http://www.w3.org/2000/svg">
<path d="M5.29425 80.2747L4.65861 80.134L5.29425 80.2747ZM127.026 258.694C127.228 258.991 127.15 259.396 126.853 259.598L122.004 262.888C121.706 263.09 121.302 263.012 121.1 262.715C120.898 262.417 120.975 262.012 121.273 261.81L125.583 258.886L122.659 254.576C122.457 254.279 122.534 253.874 122.832 253.672C123.129 253.47 123.534 253.548 123.736 253.845L127.026 258.694ZM213.125 60.2429L212.505 60.4424C198.362 16.5239 152.073 -2.27806 106.495 1.85882C60.9256 5.99488 16.4226 33.0392 5.92988 80.4155L5.29425 80.2747L4.65861 80.134C15.3142 32.0225 60.4538 4.73027 106.377 0.562082C152.291 -3.60528 199.342 15.3207 213.745 60.0433L213.125 60.2429ZM5.29425 80.2747L5.92988 80.4155C-2.30789 117.61 1.13249 147.302 10.8883 170.921C20.6464 194.546 36.7426 212.143 53.8887 225.112C71.0369 238.082 89.2219 246.412 103.126 251.499C110.077 254.042 115.954 255.774 120.091 256.869C122.159 257.416 123.792 257.805 124.906 258.056C125.463 258.182 125.891 258.273 126.178 258.333C126.322 258.362 126.43 258.384 126.503 258.399C126.539 258.406 126.566 258.411 126.584 258.415C126.593 258.417 126.599 258.418 126.604 258.419C126.606 258.419 126.607 258.419 126.608 258.42C126.609 258.42 126.61 258.42 126.487 259.059C126.365 259.699 126.364 259.699 126.362 259.698C126.361 259.698 126.359 259.698 126.356 259.697C126.351 259.696 126.344 259.695 126.334 259.693C126.315 259.689 126.286 259.683 126.248 259.676C126.172 259.661 126.06 259.638 125.913 259.607C125.619 259.546 125.184 259.453 124.62 259.326C123.491 259.072 121.842 258.679 119.757 258.128C115.588 257.024 109.672 255.281 102.679 252.722C88.6953 247.606 70.3848 239.221 53.1032 226.15C35.8195 213.078 19.5517 195.306 9.68484 171.418C-0.184332 147.524 -3.62991 117.558 4.65861 80.134L5.29425 80.2747Z" fill="white" fill-opacity="0.4"/>
</svg>
