<svg width="39" height="39" viewBox="0 0 39 39" fill="none" xmlns="http://www.w3.org/2000/svg">
<path d="M12.3266 24.5758L11.0924 31.74C11.0924 32.4811 11.0924 33.2223 12.3266 33.2223C12.7671 33.2223 18.2508 30.0107 18.7445 29.7637C19.9293 29.1708 21.2129 29.5166 21.7065 29.7637C22.2002 30.0107 27.6839 33.2223 28.1244 33.2223C29.3586 33.2223 29.3586 32.4811 29.3586 31.74L28.1244 24.5758C28.1244 24.3288 27.8775 23.5876 28.6181 22.8465L34.0485 17.4116C34.6245 16.7528 35.2827 15.6823 33.5549 15.4352L25.6494 14.2C24.662 13.953 24.1684 12.9648 23.9215 12.4707L21.2063 6.5417C20.4164 5.15826 19.5607 5.96527 19.2316 6.5417L16.2696 12.4707C16.0226 12.9648 15.7758 13.953 14.7884 14.2L6.8897 15.4352C5.16182 15.6823 5.82006 16.7528 6.39602 17.4116L11.8265 22.8465C12.567 23.5876 12.3266 24.3288 12.3266 24.5758Z" fill="#40643C" fill-opacity="0.41" stroke="white" stroke-width="1.4"/>
</svg>
