<svg width="29" height="28" viewBox="0 0 29 28" fill="none" xmlns="http://www.w3.org/2000/svg">
<path d="M9.86851 4.85329C9.69853 4.96274 9.55992 5.11448 9.46625 5.29365C9.37258 5.47281 9.32708 5.67324 9.3342 5.87528L9.34936 6.02928L10.187 10.9584C10.2404 11.2737 10.2285 11.5965 10.152 11.9069L10.0832 12.1368L7.97158 18.0284C6.94495 18.2314 6.03499 18.4951 5.32685 18.8182C4.89986 19.0131 4.48221 19.2569 4.15556 19.5719C3.82773 19.8881 3.49991 20.3687 3.49991 20.9999C3.49991 21.9892 4.27339 22.5982 4.80653 22.9132C5.41668 23.2737 6.22281 23.5584 7.11644 23.7812C8.92238 24.2327 11.356 24.4999 13.9995 24.4999C16.6431 24.4999 19.0767 24.2327 20.8826 23.7812C21.7762 23.5584 22.5824 23.2737 23.1925 22.9132C23.7257 22.5982 24.4991 21.9892 24.4991 20.9999C24.4991 20.3699 24.1725 19.8881 23.8435 19.5719C23.5168 19.2569 23.0992 19.0119 22.6722 18.8182C22.0516 18.5347 21.2781 18.2979 20.4066 18.1066L17.6516 15.5217L17.1564 10.0169C16.8563 9.1789 16.3228 8.44418 15.6188 7.89944L15.3785 7.72561L11.153 4.86729C10.9638 4.73933 10.7413 4.66969 10.513 4.667C10.2847 4.6643 10.0606 4.72983 9.86851 4.85329ZM9.22488 18.7016C10.3717 19.0679 12.6089 19.6396 14.0637 19.6396C15.5185 19.6396 16.9102 19.4412 18.057 19.0749V19.4482C18.127 19.6441 18.2481 19.8176 18.4076 19.951C18.5672 20.0843 18.7595 20.1725 18.9647 20.2066C20.1745 20.4061 21.1066 20.6686 21.7039 20.9416C21.8392 21.2274 21.6596 21.3254 21.3936 21.4269L21.1486 21.512L20.7683 21.631L20.3343 21.7512C18.7628 22.1444 16.5288 22.3999 14.0182 22.3999C11.6744 22.3999 8.87782 22.0428 7.32971 21.6928L6.95639 21.603L6.57257 21.4956L6.32058 21.4186L6.06626 21.3346C5.7396 21.218 5.46778 20.8657 5.59961 20.8062C6.19692 20.5332 6.97797 20.0327 8.18892 19.8332C8.39406 19.7992 8.58638 19.711 8.74596 19.5776C8.90554 19.4443 9.02658 19.2707 9.09656 19.0749L9.22488 18.7016ZM11.9993 7.72561L14.2433 9.05678C14.594 9.29411 14.8735 9.62239 15.0518 10.0064L15.1323 10.2024L16.2552 13.3349L17.2054 17.0706C16.3654 17.3284 15.2571 17.5023 13.9995 17.5023C12.8807 17.5023 11.8809 17.3646 11.083 17.1546L10.513 17.0706L11.9993 12.9231C12.2355 12.264 12.3205 11.5603 12.2478 10.8639L12.2069 10.5676L11.9993 7.72561Z" fill="white"/>
<path d="M26.1728 14.9129C26.1728 18.1066 23.5839 20.6955 20.3904 20.6955C17.1969 20.6955 14.608 18.1066 14.608 14.9129C14.608 11.7193 17.1969 9.13034 20.3904 9.13034C23.5839 9.13034 26.1728 11.7193 26.1728 14.9129ZM17.2108 14.9129C17.2108 16.669 18.6343 18.0926 20.3904 18.0926C22.1464 18.0926 23.57 16.669 23.57 14.9129C23.57 13.1568 22.1464 11.7332 20.3904 11.7332C18.6343 11.7332 17.2108 13.1568 17.2108 14.9129Z" fill="#1A2133"/>
<path d="M24.6235 14.913C24.6235 16.0357 24.1775 17.1124 23.3837 17.9063C22.5898 18.7001 21.5131 19.1461 20.3905 19.1461C19.2678 19.1461 18.1911 18.7001 17.3973 17.9063C16.6034 17.1124 16.1574 16.0357 16.1574 14.913C16.1574 13.7902 16.6034 12.7135 17.3973 11.9196C18.1911 11.1258 19.2678 10.6798 20.3905 10.6798C21.5131 10.6798 22.5898 11.1258 23.3837 11.9196C24.1775 12.7135 24.6235 13.7902 24.6235 14.913ZM21.0102 12.6932C21.0102 12.5447 20.9512 12.4022 20.8462 12.2972C20.7411 12.1922 20.5987 12.1332 20.4502 12.1332C20.3017 12.1332 20.1593 12.1922 20.0542 12.2972C19.9492 12.4022 19.8902 12.5447 19.8902 12.6932V14.3732H18.2103C18.0618 14.3732 17.9194 14.4322 17.8144 14.5372C17.7093 14.6422 17.6503 14.7847 17.6503 14.9332C17.6503 15.0817 17.7093 15.2241 17.8144 15.3291C17.9194 15.4342 18.0618 15.4932 18.2103 15.4932H19.8902V17.1732C19.8902 17.3217 19.9492 17.4641 20.0542 17.5691C20.1593 17.6742 20.3017 17.7332 20.4502 17.7332C20.5987 17.7332 20.7411 17.6742 20.8462 17.5691C20.9512 17.4641 21.0102 17.3217 21.0102 17.1732V15.4932H22.6901C22.8386 15.4932 22.981 15.4342 23.0861 15.3291C23.1911 15.2241 23.2501 15.0817 23.2501 14.9332C23.2501 14.7847 23.1911 14.6422 23.0861 14.5372C22.981 14.4322 22.8386 14.3732 22.6901 14.3732H21.0102V12.6932Z" fill="white"/>
</svg>
