<svg width="29" height="28" viewBox="0 0 29 28" fill="none" xmlns="http://www.w3.org/2000/svg">
<path d="M9.86855 4.85331C9.69858 4.96276 9.55996 5.11451 9.46629 5.29367C9.37262 5.47283 9.32712 5.67326 9.33424 5.87531L9.3494 6.02931L10.187 10.9585C10.2405 11.2737 10.2286 11.5966 10.152 11.907L10.0832 12.1368L7.97161 18.0285C6.94498 18.2315 6.03501 18.4952 5.32687 18.8183C4.89988 19.0132 4.48223 19.257 4.15557 19.572C3.82775 19.8882 3.49993 20.3688 3.49993 21C3.49993 21.9893 4.2734 22.5983 4.80655 22.9133C5.4167 23.2738 6.22284 23.5585 7.11648 23.7813C8.92242 24.2328 11.356 24.5 13.9996 24.5C16.6432 24.5 19.0768 24.2328 20.8827 23.7813C21.7763 23.5585 22.5825 23.2738 23.1926 22.9133C23.7258 22.5983 24.4992 21.9893 24.4992 21C24.4992 20.37 24.1726 19.8882 23.8436 19.572C23.5169 19.257 23.0993 19.012 22.6723 18.8183C22.0517 18.5348 21.2782 18.298 20.4067 18.1067L17.6516 15.5217L17.1565 10.017C16.8564 9.17894 16.3229 8.44421 15.6189 7.89948L15.3785 7.72565L11.153 4.86731C10.9639 4.73935 10.7414 4.66971 10.5131 4.66702C10.2847 4.66432 10.0606 4.72985 9.86855 4.85331ZM9.22492 18.7017C10.3717 19.068 12.609 19.6397 14.0637 19.6397C15.5185 19.6397 16.9103 19.4413 18.0571 19.075V19.4483C18.1271 19.6442 18.2481 19.8177 18.4077 19.9511C18.5673 20.0844 18.7596 20.1726 18.9648 20.2067C20.1745 20.4062 21.1067 20.6687 21.704 20.9417C21.8393 21.2275 21.6597 21.3255 21.3937 21.427L21.1487 21.5121L20.7684 21.6311L20.3344 21.7513C18.7629 22.1445 16.5288 22.4 14.0182 22.4C11.6745 22.4 8.87786 22.0429 7.32974 21.6929L6.95642 21.6031L6.5726 21.4957L6.3206 21.4187L6.06628 21.3347C5.73963 21.2181 5.46781 20.8658 5.59964 20.8063C6.19695 20.5333 6.978 20.0328 8.18896 19.8333C8.3941 19.7993 8.58642 19.711 8.746 19.5777C8.90558 19.4444 9.02662 19.2708 9.0966 19.075L9.22492 18.7017ZM11.9993 7.72565L14.2434 9.05682C14.5941 9.29415 14.8735 9.62243 15.0519 10.0065L15.1324 10.2025L16.2553 13.335L17.2055 17.0707C16.3655 17.3285 15.2572 17.5023 13.9996 17.5023C12.8808 17.5023 11.881 17.3647 11.083 17.1547L10.5131 17.0707L11.9993 12.9232C12.2356 12.2641 12.3205 11.5603 12.2478 10.864L12.207 10.5677L11.9993 7.72565Z" fill="white"/>
<path d="M26.1729 14.9132C26.1729 18.1069 23.584 20.6959 20.3905 20.6959C17.1969 20.6959 14.6081 18.1069 14.6081 14.9132C14.6081 11.7196 17.1969 9.13063 20.3905 9.13063C23.584 9.13063 26.1729 11.7196 26.1729 14.9132ZM17.2109 14.9132C17.2109 16.6694 18.6344 18.093 20.3905 18.093C22.1465 18.093 23.5701 16.6694 23.5701 14.9132C23.5701 13.1571 22.1465 11.7335 20.3905 11.7335C18.6344 11.7335 17.2109 13.1571 17.2109 14.9132Z" fill="#1A2133"/>
<path d="M24.6236 14.9131C24.6236 16.0359 24.1776 17.1126 23.3838 17.9065C22.5899 18.7004 21.5132 19.1464 20.3906 19.1464C19.2679 19.1464 18.1912 18.7004 17.3973 17.9065C16.6035 17.1126 16.1575 16.0359 16.1575 14.9131C16.1575 13.7904 16.6035 12.7137 17.3973 11.9198C18.1912 11.1259 19.2679 10.6799 20.3906 10.6799C21.5132 10.6799 22.5899 11.1259 23.3838 11.9198C24.1776 12.7137 24.6236 13.7904 24.6236 14.9131ZM21.0103 12.6934C21.0103 12.5448 20.9513 12.4024 20.8463 12.2974C20.7412 12.1924 20.5988 12.1334 20.4503 12.1334C20.3018 12.1334 20.1593 12.1924 20.0543 12.2974C19.9493 12.4024 19.8903 12.5448 19.8903 12.6934V14.3734H18.2104C18.0619 14.3734 17.9194 14.4324 17.8144 14.5374C17.7094 14.6424 17.6504 14.7848 17.6504 14.9334C17.6504 15.0819 17.7094 15.2243 17.8144 15.3293C17.9194 15.4344 18.0619 15.4934 18.2104 15.4934H19.8903V17.1734C19.8903 17.3219 19.9493 17.4643 20.0543 17.5693C20.1593 17.6744 20.3018 17.7334 20.4503 17.7334C20.5988 17.7334 20.7412 17.6744 20.8463 17.5693C20.9513 17.4643 21.0103 17.3219 21.0103 17.1734V15.4934H22.6902C22.8387 15.4934 22.9811 15.4344 23.0862 15.3293C23.1912 15.2243 23.2502 15.0819 23.2502 14.9334C23.2502 14.7848 23.1912 14.6424 23.0862 14.5374C22.9811 14.4324 22.8387 14.3734 22.6902 14.3734H21.0103V12.6934Z" fill="white"/>
</svg>
