<svg width="398" height="199" viewBox="0 0 398 199" fill="none" xmlns="http://www.w3.org/2000/svg">
<path d="M363.089 109.875L362.901 109.251L363.089 109.875ZM163.099 86.2734C162.751 86.365 162.544 86.7211 162.635 87.0688L164.127 92.7352C164.219 93.0829 164.575 93.2906 164.923 93.199C165.27 93.1075 165.478 92.7514 165.386 92.4037L164.06 87.3669L169.097 86.0407C169.445 85.9492 169.652 85.5931 169.561 85.2454C169.469 84.8977 169.113 84.69 168.766 84.7816L163.099 86.2734ZM245.899 39.7612L246.395 40.1825C269.461 13.0028 294.056 2.08319 316.488 1.34283C338.935 0.60195 359.306 10.0513 373.911 23.777C388.528 37.5137 397.298 55.4612 396.666 71.6454C396.35 79.7259 393.693 87.373 388.243 93.8701C382.791 100.37 374.513 105.755 362.901 109.251L363.089 109.875L363.277 110.498C375.078 106.945 383.593 101.44 389.241 94.7069C394.891 87.9704 397.641 80.0402 397.967 71.6962C398.618 55.0317 389.609 36.7424 374.803 22.8282C359.986 8.90303 339.29 -0.712569 316.445 0.0414276C293.584 0.795944 268.662 11.931 245.403 39.3399L245.899 39.7612ZM363.089 109.875L362.901 109.251C310.149 125.135 260.322 119.411 223.666 109.706C205.34 104.854 190.314 99.0083 179.872 94.3771C174.652 92.0616 170.578 90.05 167.811 88.6185C166.427 87.9027 165.371 87.332 164.661 86.9408C164.306 86.7452 164.038 86.5946 163.859 86.4931C163.77 86.4423 163.703 86.4039 163.658 86.3783C163.636 86.3655 163.619 86.3559 163.608 86.3496C163.603 86.3465 163.599 86.3442 163.596 86.3426C163.595 86.3419 163.594 86.3414 163.594 86.341C163.593 86.3407 163.593 86.3406 163.265 86.903C162.937 87.4654 162.938 87.4658 162.938 87.4663C162.939 87.4668 162.94 87.4675 162.942 87.4684C162.945 87.4702 162.95 87.4729 162.956 87.4764C162.968 87.4833 162.985 87.4935 163.009 87.507C163.056 87.5338 163.125 87.5736 163.217 87.6256C163.4 87.7297 163.673 87.883 164.032 88.0812C164.752 88.4776 165.818 89.0537 167.212 89.775C170 91.2174 174.098 93.2405 179.344 95.5674C189.837 100.221 204.929 106.092 223.333 110.965C260.138 120.709 310.223 126.472 363.277 110.498L363.089 109.875Z" fill="white" fill-opacity="0.4"/>
<line y1="197.868" x2="357.58" y2="197.868" stroke="white" stroke-opacity="0.4" stroke-width="1.3"/>
</svg>
